<mxfile host="app.diagrams.net" modified="2024-02-18T21:16:10.388Z" agent="Mozilla/5.0 (Macintosh; Intel Mac OS X 10_15_7) AppleWebKit/537.36 (KHTML, like Gecko) Chrome/121.0.0.0 Safari/537.36" etag="nXSCv8KdmFVv5qy690r9" version="23.1.5" type="github">
  <diagram name="Page-1" id="2YBvvXClWsGukQMizWep">
    <mxGraphModel dx="1865" dy="1024" grid="1" gridSize="10" guides="1" tooltips="1" connect="1" arrows="1" fold="1" page="1" pageScale="1" pageWidth="850" pageHeight="1100" math="0" shadow="0">
      <root>
        <mxCell id="0" />
        <mxCell id="1" parent="0" />
        <mxCell id="EHbPiVE0iIhQVbmUUJc1-3" value="Superheroes" style="rounded=0;whiteSpace=wrap;html=1;" vertex="1" parent="1">
          <mxGeometry x="40" y="110" width="120" height="60" as="geometry" />
        </mxCell>
        <mxCell id="EHbPiVE0iIhQVbmUUJc1-8" value="Evil Gangs" style="rounded=0;whiteSpace=wrap;html=1;" vertex="1" parent="1">
          <mxGeometry x="740" y="180" width="120" height="60" as="geometry" />
        </mxCell>
        <mxCell id="EHbPiVE0iIhQVbmUUJc1-9" value="Abilities" style="rounded=0;whiteSpace=wrap;html=1;" vertex="1" parent="1">
          <mxGeometry x="390" y="320" width="120" height="60" as="geometry" />
        </mxCell>
        <mxCell id="EHbPiVE0iIhQVbmUUJc1-6" value="Locations" style="rounded=0;whiteSpace=wrap;html=1;" vertex="1" parent="1">
          <mxGeometry x="1040" y="60" width="120" height="60" as="geometry" />
        </mxCell>
        <mxCell id="EHbPiVE0iIhQVbmUUJc1-5" value="Battles&amp;nbsp;" style="rounded=0;whiteSpace=wrap;html=1;" vertex="1" parent="1">
          <mxGeometry x="780" y="490" width="120" height="60" as="geometry" />
        </mxCell>
        <mxCell id="EHbPiVE0iIhQVbmUUJc1-4" value="Villans" style="rounded=0;whiteSpace=wrap;html=1;" vertex="1" parent="1">
          <mxGeometry x="560" y="100" width="120" height="60" as="geometry" />
        </mxCell>
        <mxCell id="EHbPiVE0iIhQVbmUUJc1-7" value="Leagues" style="rounded=0;whiteSpace=wrap;html=1;" vertex="1" parent="1">
          <mxGeometry x="240" y="200" width="120" height="60" as="geometry" />
        </mxCell>
        <mxCell id="EHbPiVE0iIhQVbmUUJc1-10" value="Casualty" style="rounded=0;whiteSpace=wrap;html=1;" vertex="1" parent="1">
          <mxGeometry x="970" y="650" width="120" height="60" as="geometry" />
        </mxCell>
        <mxCell id="EHbPiVE0iIhQVbmUUJc1-17" value="loop" style="shape=umlFrame;whiteSpace=wrap;html=1;pointerEvents=0;" vertex="1" parent="1">
          <mxGeometry width="1360" height="1100" as="geometry" />
        </mxCell>
        <mxCell id="EHbPiVE0iIhQVbmUUJc1-18" value="" style="endArrow=open;endFill=1;endSize=12;html=1;rounded=0;entryX=0.5;entryY=0;entryDx=0;entryDy=0;exitX=0.5;exitY=1;exitDx=0;exitDy=0;" edge="1" parent="1" source="EHbPiVE0iIhQVbmUUJc1-3" target="EHbPiVE0iIhQVbmUUJc1-9">
          <mxGeometry width="160" relative="1" as="geometry">
            <mxPoint x="110" y="180" as="sourcePoint" />
            <mxPoint x="240" y="170" as="targetPoint" />
          </mxGeometry>
        </mxCell>
        <mxCell id="EHbPiVE0iIhQVbmUUJc1-24" value="" style="endArrow=open;endFill=1;endSize=12;html=1;rounded=0;exitX=0.5;exitY=1;exitDx=0;exitDy=0;entryX=0.5;entryY=0;entryDx=0;entryDy=0;" edge="1" parent="1" source="EHbPiVE0iIhQVbmUUJc1-4" target="EHbPiVE0iIhQVbmUUJc1-9">
          <mxGeometry width="160" relative="1" as="geometry">
            <mxPoint x="440" y="410" as="sourcePoint" />
            <mxPoint x="600" y="410" as="targetPoint" />
          </mxGeometry>
        </mxCell>
        <mxCell id="EHbPiVE0iIhQVbmUUJc1-25" value="" style="endArrow=open;endFill=1;endSize=12;html=1;rounded=0;entryX=0;entryY=0.5;entryDx=0;entryDy=0;" edge="1" parent="1" source="EHbPiVE0iIhQVbmUUJc1-29" target="EHbPiVE0iIhQVbmUUJc1-7">
          <mxGeometry width="160" relative="1" as="geometry">
            <mxPoint x="440" y="300" as="sourcePoint" />
            <mxPoint x="600" y="300" as="targetPoint" />
          </mxGeometry>
        </mxCell>
        <mxCell id="EHbPiVE0iIhQVbmUUJc1-26" value="" style="endArrow=open;endFill=1;endSize=12;html=1;rounded=0;entryX=0.5;entryY=0;entryDx=0;entryDy=0;" edge="1" parent="1" target="EHbPiVE0iIhQVbmUUJc1-8">
          <mxGeometry width="160" relative="1" as="geometry">
            <mxPoint x="625" y="180" as="sourcePoint" />
            <mxPoint x="760" y="350" as="targetPoint" />
          </mxGeometry>
        </mxCell>
        <mxCell id="EHbPiVE0iIhQVbmUUJc1-27" value="Alt" style="shape=umlFrame;whiteSpace=wrap;html=1;pointerEvents=0;" vertex="1" parent="1">
          <mxGeometry x="10" y="70" width="350" height="360" as="geometry" />
        </mxCell>
        <mxCell id="EHbPiVE0iIhQVbmUUJc1-29" value="" style="html=1;points=[[0,0,0,0,5],[0,1,0,0,-5],[1,0,0,0,5],[1,1,0,0,-5]];perimeter=orthogonalPerimeter;outlineConnect=0;targetShapes=umlLifeline;portConstraint=eastwest;newEdgeStyle={&quot;curved&quot;:0,&quot;rounded&quot;:0};" vertex="1" parent="1">
          <mxGeometry x="90" y="170" width="10" height="930" as="geometry" />
        </mxCell>
        <mxCell id="EHbPiVE0iIhQVbmUUJc1-30" value="[If Superhero needs help]" style="text;html=1;align=center;verticalAlign=middle;whiteSpace=wrap;rounded=0;" vertex="1" parent="1">
          <mxGeometry x="160" y="105" width="90" height="50" as="geometry" />
        </mxCell>
        <mxCell id="EHbPiVE0iIhQVbmUUJc1-32" value="[Else Goes Alone]" style="text;html=1;align=center;verticalAlign=middle;whiteSpace=wrap;rounded=0;" vertex="1" parent="1">
          <mxGeometry x="110" y="380" width="70" height="30" as="geometry" />
        </mxCell>
        <mxCell id="EHbPiVE0iIhQVbmUUJc1-36" value="Alt" style="shape=umlFrame;whiteSpace=wrap;html=1;pointerEvents=0;" vertex="1" parent="1">
          <mxGeometry x="530" y="60" width="350" height="360" as="geometry" />
        </mxCell>
        <mxCell id="EHbPiVE0iIhQVbmUUJc1-37" value="[If villan needs help]" style="text;html=1;align=center;verticalAlign=middle;whiteSpace=wrap;rounded=0;" vertex="1" parent="1">
          <mxGeometry x="700" y="105" width="90" height="50" as="geometry" />
        </mxCell>
        <mxCell id="EHbPiVE0iIhQVbmUUJc1-39" value="" style="html=1;points=[[0,0,0,0,5],[0,1,0,0,-5],[1,0,0,0,5],[1,1,0,0,-5]];perimeter=orthogonalPerimeter;outlineConnect=0;targetShapes=umlLifeline;portConstraint=eastwest;newEdgeStyle={&quot;curved&quot;:0,&quot;rounded&quot;:0};" vertex="1" parent="1">
          <mxGeometry x="615" y="160" width="10" height="930" as="geometry" />
        </mxCell>
        <mxCell id="EHbPiVE0iIhQVbmUUJc1-41" value="[While Evil&amp;nbsp; Exists]" style="text;html=1;align=center;verticalAlign=middle;whiteSpace=wrap;rounded=0;" vertex="1" parent="1">
          <mxGeometry x="20" y="30" width="110" height="30" as="geometry" />
        </mxCell>
        <mxCell id="EHbPiVE0iIhQVbmUUJc1-42" value="[Else Goes Alone]" style="text;html=1;align=center;verticalAlign=middle;whiteSpace=wrap;rounded=0;" vertex="1" parent="1">
          <mxGeometry x="640" y="370" width="70" height="30" as="geometry" />
        </mxCell>
      </root>
    </mxGraphModel>
  </diagram>
</mxfile>
